<svg width="960" height="600" version="1.1" xmlns="http://www.w3.org/2000/svg"><g></g><g transform="translate(480,300)scale(1.0526316165924072,1.0526316165924072)"><text text-anchor="middle" transform="translate(168,106)rotate(-30.00000044529205)scale(0.9999999865388264,0.9999999865388264)" style="font-size: 79px; font-family: Impact; fill: rgb(82, 84, 163);">information</text><text text-anchor="middle" transform="translate(184,140)rotate(-30.00000044529205)scale(0.9999999865388264,0.9999999865388264)" style="font-size: 40px; font-family: Impact; fill: rgb(107, 110, 207);">sharing</text><text text-anchor="middle" transform="translate(-253,23)rotate(-30.00000044529205)scale(0.9999999865388264,0.9999999865388264)" style="font-size: 40px; font-family: Impact; fill: rgb(156, 158, 222);">external</text><text text-anchor="middle" transform="translate(289,140)rotate(-30.00000044529205)scale(0.9999999865388264,0.9999999865388264)" style="font-size: 10px; font-family: Impact; fill: rgb(99, 121, 57);">Engagement</text><text text-anchor="middle" transform="translate(-159,146)rotate(-30.00000044529205)scale(0.9999999865388264,0.9999999865388264)" style="font-size: 10px; font-family: Impact; fill: rgb(140, 162, 82);">Policy</text><text text-anchor="middle" transform="translate(-108,62)rotate(-30.00000044529205)scale(0.9999999865388264,0.9999999865388264)" style="font-size: 10px; font-family: Impact; fill: rgb(181, 207, 107);">INGONNGO</text><text text-anchor="middle" transform="translate(-203,-76)rotate(-30.00000044529205)scale(0.9999999865388264,0.9999999865388264)" style="font-size: 57px; font-family: Impact; fill: rgb(206, 219, 156);">networking</text><text text-anchor="middle" transform="translate(251,143)rotate(-30.00000044529205)scale(0.9999999865388264,0.9999999865388264)" style="font-size: 40px; font-family: Impact; fill: rgb(140, 109, 49);">security</text><text text-anchor="middle" transform="translate(25,109)rotate(-30.00000044529205)scale(0.9999999865388264,0.9999999865388264)" style="font-size: 100px; font-family: Impact; fill: rgb(189, 158, 57);">NGO</text><text text-anchor="middle" transform="translate(16,-31)rotate(-30.00000044529205)scale(0.9999999865388264,0.9999999865388264)" style="font-size: 94px; font-family: Impact; fill: rgb(231, 186, 82);">Forum</text><text text-anchor="middle" transform="translate(-9,-133)rotate(-30.00000044529205)scale(0.9999999865388264,0.9999999865388264)" style="font-size: 87px; font-family: Impact; fill: rgb(57, 59, 121);"></text><text text-anchor="middle" transform="translate(-126,-41)rotate(-30.00000044529205)scale(0.9999999865388264,0.9999999865388264)" style="font-size: 79px; font-family: Impact; fill: rgb(231, 203, 148);">Aim</text><text text-anchor="middle" transform="translate(186,-54)rotate(-30.00000044529205)scale(0.9999999865388264,0.9999999865388264)" style="font-size: 70px; font-family: Impact; fill: rgb(132, 60, 57);">members</text><text text-anchor="middle" transform="translate(-229,69)rotate(-30.00000044529205)scale(0.9999999865388264,0.9999999865388264)" style="font-size: 57px; font-family: Impact; fill: rgb(173, 73, 74);">NGOs</text><text text-anchor="middle" transform="translate(-202,-137)rotate(-30.00000044529205)scale(0.9999999865388264,0.9999999865388264)" style="font-size: 57px; font-family: Impact; fill: rgb(214, 97, 107);">capacity</text><text text-anchor="middle" transform="translate(236,-12)rotate(-30.00000044529205)scale(0.9999999865388264,0.9999999865388264)" style="font-size: 57px; font-family: Impact; fill: rgb(107, 110, 207);">development</text><text text-anchor="middle" transform="translate(-20,31)rotate(-30.00000044529205)scale(0.9999999865388264,0.9999999865388264)" style="font-size: 40px; font-family: Impact; fill: rgb(231, 150, 156);">general</text><text text-anchor="middle" transform="translate(-119,202)rotate(-30.00000044529205)scale(0.9999999865388264,0.9999999865388264)" style="font-size: 40px; font-family: Impact; fill: rgb(123, 65, 115);">presence</text><text text-anchor="middle" transform="translate(-216,104)rotate(-30.00000044529205)scale(0.9999999865388264,0.9999999865388264)" style="font-size: 40px; font-family: Impact; fill: rgb(165, 81, 148);">activities</text><text text-anchor="middle" transform="translate(4,-101)rotate(-30.00000044529205)scale(0.9999999865388264,0.9999999865388264)" style="font-size: 40px; font-family: Impact; fill: rgb(206, 109, 189);">interests</text><text text-anchor="middle" transform="translate(87,25)rotate(-30.00000044529205)scale(0.9999999865388264,0.9999999865388264)" style="font-size: 10px; font-family: Impact; fill: rgb(222, 158, 214);">1</text><text text-anchor="middle" transform="translate(-216,122)rotate(-30.00000044529205)scale(0.9999999865388264,0.9999999865388264)" style="font-size: 10px; font-family: Impact; fill: rgb(57, 59, 121);">2</text><text text-anchor="middle" transform="translate(51,3)rotate(-30.00000044529205)scale(0.9999999865388264,0.9999999865388264)" style="font-size: 10px; font-family: Impact; fill: rgb(82, 84, 163);">3</text><text text-anchor="middle" transform="translate(178,29)rotate(-30.00000044529205)scale(0.9999999865388264,0.9999999865388264)" style="font-size: 10px; font-family: Impact; fill: rgb(107, 110, 207);">4</text><text text-anchor="middle" transform="translate(97,-64)rotate(-30.00000044529205)scale(0.9999999865388264,0.9999999865388264)" style="font-size: 10px; font-family: Impact; fill: rgb(156, 158, 222);">5</text><text text-anchor="middle" transform="translate(127,0)rotate(-30.00000044529205)scale(0.9999999865388264,0.9999999865388264)" style="font-size: 10px; font-family: Impact; fill: rgb(99, 121, 57);">manages</text><text text-anchor="middle" transform="translate(142,-102)rotate(-30.00000044529205)scale(0.9999999865388264,0.9999999865388264)" style="font-size: 10px; font-family: Impact; fill: rgb(140, 162, 82);">unique</text><text text-anchor="middle" transform="translate(-123,17)rotate(-30.00000044529205)scale(0.9999999865388264,0.9999999865388264)" style="font-size: 10px; font-family: Impact; fill: rgb(181, 207, 107);">network</text><text text-anchor="middle" transform="translate(40,-27)rotate(-30.00000044529205)scale(0.9999999865388264,0.9999999865388264)" style="font-size: 10px; font-family: Impact; fill: rgb(206, 219, 156);">South</text><text text-anchor="middle" transform="translate(67,-46)rotate(-30.00000044529205)scale(0.9999999865388264,0.9999999865388264)" style="font-size: 10px; font-family: Impact; fill: rgb(140, 109, 49);">Sudan</text><text text-anchor="middle" transform="translate(-70,-108)rotate(-30.00000044529205)scale(0.9999999865388264,0.9999999865388264)" style="font-size: 10px; font-family: Impact; fill: rgb(189, 158, 57);">thereby</text><text text-anchor="middle" transform="translate(-179,98)rotate(-30.00000044529205)scale(0.9999999865388264,0.9999999865388264)" style="font-size: 10px; font-family: Impact; fill: rgb(231, 186, 82);">constantly</text><text text-anchor="middle" transform="translate(-152,121)rotate(-30.00000044529205)scale(0.9999999865388264,0.9999999865388264)" style="font-size: 10px; font-family: Impact; fill: rgb(231, 203, 148);">receiving</text><text text-anchor="middle" transform="translate(-134,10)rotate(-30.00000044529205)scale(0.9999999865388264,0.9999999865388264)" style="font-size: 10px; font-family: Impact; fill: rgb(132, 60, 57);">requests</text><text text-anchor="middle" transform="translate(149,52)rotate(-30.00000044529205)scale(0.9999999865388264,0.9999999865388264)" style="font-size: 10px; font-family: Impact; fill: rgb(173, 73, 74);">country</text><text text-anchor="middle" transform="translate(91,167)rotate(-30.00000044529205)scale(0.9999999865388264,0.9999999865388264)" style="font-size: 10px; font-family: Impact; fill: rgb(214, 97, 107);">Collecting</text><text text-anchor="middle" transform="translate(257,72)rotate(-30.00000044529205)scale(0.9999999865388264,0.9999999865388264)" style="font-size: 10px; font-family: Impact; fill: rgb(189, 158, 57);">relevant</text><text text-anchor="middle" transform="translate(-38,-122)rotate(-30.00000044529205)scale(0.9999999865388264,0.9999999865388264)" style="font-size: 10px; font-family: Impact; fill: rgb(206, 219, 156);">data</text><text text-anchor="middle" transform="translate(213,-52)rotate(-30.00000044529205)scale(0.9999999865388264,0.9999999865388264)" style="font-size: 10px; font-family: Impact; fill: rgb(231, 150, 156);">conducting</text><text text-anchor="middle" transform="translate(113,-73)rotate(-30.00000044529205)scale(0.9999999865388264,0.9999999865388264)" style="font-size: 10px; font-family: Impact; fill: rgb(123, 65, 115);">trend</text><text text-anchor="middle" transform="translate(108,75)rotate(-30.00000044529205)scale(0.9999999865388264,0.9999999865388264)" style="font-size: 10px; font-family: Impact; fill: rgb(165, 81, 148);">analyses</text><text text-anchor="middle" transform="translate(207,-130)rotate(-30.00000044529205)scale(0.9999999865388264,0.9999999865388264)" style="font-size: 10px; font-family: Impact; fill: rgb(206, 109, 189);">statistics</text><text text-anchor="middle" transform="translate(-113,40)rotate(-30.00000044529205)scale(0.9999999865388264,0.9999999865388264)" style="font-size: 10px; font-family: Impact; fill: rgb(222, 158, 214);">constraints</text><text text-anchor="middle" transform="translate(-72,-159)rotate(-30.00000044529205)scale(0.9999999865388264,0.9999999865388264)" style="font-size: 10px; font-family: Impact; fill: rgb(57, 59, 121);">support</text><text text-anchor="middle" transform="translate(264,83)rotate(-30.00000044529205)scale(0.9999999865388264,0.9999999865388264)" style="font-size: 10px; font-family: Impact; fill: rgb(82, 84, 163);">messaging</text><text text-anchor="middle" transform="translate(261,-79)rotate(-30.00000044529205)scale(0.9999999865388264,0.9999999865388264)" style="font-size: 10px; font-family: Impact; fill: rgb(107, 110, 207);">represents</text><text text-anchor="middle" transform="translate(-87,122)rotate(-30.00000044529205)scale(0.9999999865388264,0.9999999865388264)" style="font-size: 10px; font-family: Impact; fill: rgb(156, 158, 222);">meetings</text><text text-anchor="middle" transform="translate(-212,-42)rotate(-30.00000044529205)scale(0.9999999865388264,0.9999999865388264)" style="font-size: 10px; font-family: Impact; fill: rgb(99, 121, 57);">work</text><text text-anchor="middle" transform="translate(-50,-135)rotate(-30.00000044529205)scale(0.9999999865388264,0.9999999865388264)" style="font-size: 10px; font-family: Impact; fill: rgb(140, 162, 82);">discussions</text><text text-anchor="middle" transform="translate(296,-33)rotate(-30.00000044529205)scale(0.9999999865388264,0.9999999865388264)" style="font-size: 10px; font-family: Impact; fill: rgb(181, 207, 107);">documents</text><text text-anchor="middle" transform="translate(77,94)rotate(-30.00000044529205)scale(0.9999999865388264,0.9999999865388264)" style="font-size: 10px; font-family: Impact; fill: rgb(206, 219, 156);">act</text><text text-anchor="middle" transform="translate(157,172)rotate(-30.00000044529205)scale(0.9999999865388264,0.9999999865388264)" style="font-size: 10px; font-family: Impact; fill: rgb(140, 109, 49);">issues</text><text text-anchor="middle" transform="translate(-232,-43)rotate(-30.00000044529205)scale(0.9999999865388264,0.9999999865388264)" style="font-size: 10px; font-family: Impact; fill: rgb(189, 158, 57);">member</text><text text-anchor="middle" transform="translate(-118,29)rotate(-30.00000044529205)scale(0.9999999865388264,0.9999999865388264)" style="font-size: 10px; font-family: Impact; fill: rgb(231, 186, 82);">interest</text><text text-anchor="middle" transform="translate(-74,136)rotate(-30.00000044529205)scale(0.9999999865388264,0.9999999865388264)" style="font-size: 10px; font-family: Impact; fill: rgb(99, 121, 57);">works</text><text text-anchor="middle" transform="translate(7,-143)rotate(-30.00000044529205)scale(0.9999999865388264,0.9999999865388264)" style="font-size: 10px; font-family: Impact; fill: rgb(231, 203, 148);">develop</text><text text-anchor="middle" transform="translate(290,52)rotate(-30.00000044529205)scale(0.9999999865388264,0.9999999865388264)" style="font-size: 10px; font-family: Impact; fill: rgb(132, 60, 57);">papers</text><text text-anchor="middle" transform="translate(-125,-107)rotate(-30.00000044529205)scale(0.9999999865388264,0.9999999865388264)" style="font-size: 10px; font-family: Impact; fill: rgb(173, 73, 74);">prioritise</text><text text-anchor="middle" transform="translate(105,-144)rotate(-30.00000044529205)scale(0.9999999865388264,0.9999999865388264)" style="font-size: 10px; font-family: Impact; fill: rgb(165, 81, 148);">areas</text><text text-anchor="middle" transform="translate(-123,127)rotate(-30.00000044529205)scale(0.9999999865388264,0.9999999865388264)" style="font-size: 10px; font-family: Impact; fill: rgb(214, 97, 107);">represent</text><text text-anchor="middle" transform="translate(-142,-6)rotate(-30.00000044529205)scale(0.9999999865388264,0.9999999865388264)" style="font-size: 10px; font-family: Impact; fill: rgb(231, 150, 156);">committed</text><text text-anchor="middle" transform="translate(-250,-15)rotate(-30.00000044529205)scale(0.9999999865388264,0.9999999865388264)" style="font-size: 10px; font-family: Impact; fill: rgb(123, 65, 115);">strengthening</text><text text-anchor="middle" transform="translate(-250,-160)rotate(-30.00000044529205)scale(0.9999999865388264,0.9999999865388264)" style="font-size: 10px; font-family: Impact; fill: rgb(165, 81, 148);">partnership</text><text text-anchor="middle" transform="translate(145,-118)rotate(-30.00000044529205)scale(0.9999999865388264,0.9999999865388264)" style="font-size: 10px; font-family: Impact; fill: rgb(206, 109, 189);">international</text><text text-anchor="middle" transform="translate(-102,75)rotate(-30.00000044529205)scale(0.9999999865388264,0.9999999865388264)" style="font-size: 10px; font-family: Impact; fill: rgb(222, 158, 214);">national</text><text text-anchor="middle" transform="translate(133,-126)rotate(-30.00000044529205)scale(0.9999999865388264,0.9999999865388264)" style="font-size: 10px; font-family: Impact; fill: rgb(57, 59, 121);">including</text><text text-anchor="middle" transform="translate(203,-142)rotate(-30.00000044529205)scale(0.9999999865388264,0.9999999865388264)" style="font-size: 10px; font-family: Impact; fill: rgb(82, 84, 163);">facilitation</text><text text-anchor="middle" transform="translate(-111,108)rotate(-30.00000044529205)scale(0.9999999865388264,0.9999999865388264)" style="font-size: 10px; font-family: Impact; fill: rgb(107, 110, 207);">linking</text><text text-anchor="middle" transform="translate(-52,-150)rotate(-30.00000044529205)scale(0.9999999865388264,0.9999999865388264)" style="font-size: 10px; font-family: Impact; fill: rgb(156, 158, 222);">opportunities</text><text text-anchor="middle" transform="translate(-268,-23)rotate(-30.00000044529205)scale(0.9999999865388264,0.9999999865388264)" style="font-size: 10px; font-family: Impact; fill: rgb(99, 121, 57);">training</text><text text-anchor="middle" transform="translate(-306,12)rotate(-30.00000044529205)scale(0.9999999865388264,0.9999999865388264)" style="font-size: 10px; font-family: Impact; fill: rgb(140, 162, 82);">initiatives</text><text text-anchor="middle" transform="translate(301,76)rotate(-30.00000044529205)scale(0.9999999865388264,0.9999999865388264)" style="font-size: 10px; font-family: Impact; fill: rgb(181, 207, 107);">provides</text><text text-anchor="middle" transform="translate(-146,92)rotate(-30.00000044529205)scale(0.9999999865388264,0.9999999865388264)" style="font-size: 10px; font-family: Impact; fill: rgb(206, 219, 156);">accessible</text><text text-anchor="middle" transform="translate(-7,-152)rotate(-30.00000044529205)scale(0.9999999865388264,0.9999999865388264)" style="font-size: 10px; font-family: Impact; fill: rgb(140, 109, 49);">timely</text><text text-anchor="middle" transform="translate(285,157)rotate(-30.00000044529205)scale(0.9999999865388264,0.9999999865388264)" style="font-size: 10px; font-family: Impact; fill: rgb(189, 158, 57);">access</text><text text-anchor="middle" transform="translate(143,-146)rotate(-30.00000044529205)scale(0.9999999865388264,0.9999999865388264)" style="font-size: 10px; font-family: Impact; fill: rgb(231, 186, 82);">related</text><text text-anchor="middle" transform="translate(173,-148)rotate(-30.00000044529205)scale(0.9999999865388264,0.9999999865388264)" style="font-size: 10px; font-family: Impact; fill: rgb(231, 203, 148);">advice</text><text text-anchor="middle" transform="translate(167,-116)rotate(-30.00000044529205)scale(0.9999999865388264,0.9999999865388264)" style="font-size: 10px; font-family: Impact; fill: rgb(132, 60, 57);">best</text><text text-anchor="middle" transform="translate(308,-110)rotate(-30.00000044529205)scale(0.9999999865388264,0.9999999865388264)" style="font-size: 10px; font-family: Impact; fill: rgb(173, 73, 74);">practices</text></g></svg>