<svg width="960" height="600" version="1.1" xmlns="http://www.w3.org/2000/svg"><g></g><g transform="translate(480,300)scale(1.0067113637924194,1.0067113637924194)"><text text-anchor="middle" transform="translate(-118,107)rotate(-30.00000044529205)scale(0.9999999865388264,0.9999999865388264)" style="font-size: 79px; font-family: Impact; fill: rgb(82, 84, 163);">information</text><text text-anchor="middle" transform="translate(243,166)rotate(-30.00000044529205)scale(0.9999999865388264,0.9999999865388264)" style="font-size: 40px; font-family: Impact; fill: rgb(107, 110, 207);">sharing</text><text text-anchor="middle" transform="translate(-173,-33)rotate(-30.00000044529205)scale(0.9999999865388264,0.9999999865388264)" style="font-size: 40px; font-family: Impact; fill: rgb(156, 158, 222);">external</text><text text-anchor="middle" transform="translate(-222,-113)rotate(-30.00000044529205)scale(0.9999999865388264,0.9999999865388264)" style="font-size: 10px; font-family: Impact; fill: rgb(99, 121, 57);">Engagement</text><text text-anchor="middle" transform="translate(-179,157)rotate(-30.00000044529205)scale(0.9999999865388264,0.9999999865388264)" style="font-size: 10px; font-family: Impact; fill: rgb(140, 162, 82);">Policy</text><text text-anchor="middle" transform="translate(-232,15)rotate(-30.00000044529205)scale(0.9999999865388264,0.9999999865388264)" style="font-size: 10px; font-family: Impact; fill: rgb(181, 207, 107);">INGONNGO</text><text text-anchor="middle" transform="translate(137,124)rotate(-30.00000044529205)scale(0.9999999865388264,0.9999999865388264)" style="font-size: 57px; font-family: Impact; fill: rgb(206, 219, 156);">networking</text><text text-anchor="middle" transform="translate(-36,147)rotate(-30.00000044529205)scale(0.9999999865388264,0.9999999865388264)" style="font-size: 40px; font-family: Impact; fill: rgb(140, 109, 49);">security</text><text text-anchor="middle" transform="translate(-40,-144)rotate(-30.00000044529205)scale(0.9999999865388264,0.9999999865388264)" style="font-size: 100px; font-family: Impact; fill: rgb(189, 158, 57);">NGO</text><text text-anchor="middle" transform="translate(2,-42)rotate(-30.00000044529205)scale(0.9999999865388264,0.9999999865388264)" style="font-size: 94px; font-family: Impact; fill: rgb(231, 186, 82);">Forum</text><text text-anchor="middle" transform="translate(6,-73)rotate(-30.00000044529205)scale(0.9999999865388264,0.9999999865388264)" style="font-size: 87px; font-family: Impact; fill: rgb(57, 59, 121);"></text><text text-anchor="middle" transform="translate(123,-31)rotate(-30.00000044529205)scale(0.9999999865388264,0.9999999865388264)" style="font-size: 79px; font-family: Impact; fill: rgb(231, 203, 148);">Aim</text><text text-anchor="middle" transform="translate(140,32)rotate(-30.00000044529205)scale(0.9999999865388264,0.9999999865388264)" style="font-size: 70px; font-family: Impact; fill: rgb(132, 60, 57);">members</text><text text-anchor="middle" transform="translate(295,2)rotate(-30.00000044529205)scale(0.9999999865388264,0.9999999865388264)" style="font-size: 57px; font-family: Impact; fill: rgb(173, 73, 74);">NGOs</text><text text-anchor="middle" transform="translate(204,146)rotate(-30.00000044529205)scale(0.9999999865388264,0.9999999865388264)" style="font-size: 57px; font-family: Impact; fill: rgb(214, 97, 107);">capacity</text><text text-anchor="middle" transform="translate(-152,-184)rotate(-30.00000044529205)scale(0.9999999865388264,0.9999999865388264)" style="font-size: 57px; font-family: Impact; fill: rgb(107, 110, 207);">development</text><text text-anchor="middle" transform="translate(-52,112)rotate(-30.00000044529205)scale(0.9999999865388264,0.9999999865388264)" style="font-size: 40px; font-family: Impact; fill: rgb(231, 150, 156);">general</text><text text-anchor="middle" transform="translate(-194,43)rotate(-30.00000044529205)scale(0.9999999865388264,0.9999999865388264)" style="font-size: 40px; font-family: Impact; fill: rgb(123, 65, 115);">presence</text><text text-anchor="middle" transform="translate(-35,-103)rotate(-30.00000044529205)scale(0.9999999865388264,0.9999999865388264)" style="font-size: 40px; font-family: Impact; fill: rgb(165, 81, 148);">activities</text><text text-anchor="middle" transform="translate(-182,-70)rotate(-30.00000044529205)scale(0.9999999865388264,0.9999999865388264)" style="font-size: 40px; font-family: Impact; fill: rgb(206, 109, 189);">interests</text><text text-anchor="middle" transform="translate(-8,-45)rotate(-30.00000044529205)scale(0.9999999865388264,0.9999999865388264)" style="font-size: 10px; font-family: Impact; fill: rgb(222, 158, 214);">1</text><text text-anchor="middle" transform="translate(-73,-1)rotate(-30.00000044529205)scale(0.9999999865388264,0.9999999865388264)" style="font-size: 10px; font-family: Impact; fill: rgb(57, 59, 121);">2</text><text text-anchor="middle" transform="translate(-151,60)rotate(-30.00000044529205)scale(0.9999999865388264,0.9999999865388264)" style="font-size: 10px; font-family: Impact; fill: rgb(82, 84, 163);">3</text><text text-anchor="middle" transform="translate(36,33)rotate(-30.00000044529205)scale(0.9999999865388264,0.9999999865388264)" style="font-size: 10px; font-family: Impact; fill: rgb(107, 110, 207);">4</text><text text-anchor="middle" transform="translate(39,-143)rotate(-30.00000044529205)scale(0.9999999865388264,0.9999999865388264)" style="font-size: 10px; font-family: Impact; fill: rgb(156, 158, 222);">5</text><text text-anchor="middle" transform="translate(71,13)rotate(-30.00000044529205)scale(0.9999999865388264,0.9999999865388264)" style="font-size: 10px; font-family: Impact; fill: rgb(99, 121, 57);">manages</text><text text-anchor="middle" transform="translate(27,-42)rotate(-30.00000044529205)scale(0.9999999865388264,0.9999999865388264)" style="font-size: 10px; font-family: Impact; fill: rgb(140, 162, 82);">unique</text><text text-anchor="middle" transform="translate(-201,-109)rotate(-30.00000044529205)scale(0.9999999865388264,0.9999999865388264)" style="font-size: 10px; font-family: Impact; fill: rgb(181, 207, 107);">network</text><text text-anchor="middle" transform="translate(202,35)rotate(-30.00000044529205)scale(0.9999999865388264,0.9999999865388264)" style="font-size: 10px; font-family: Impact; fill: rgb(206, 219, 156);">South</text><text text-anchor="middle" transform="translate(173,31)rotate(-30.00000044529205)scale(0.9999999865388264,0.9999999865388264)" style="font-size: 10px; font-family: Impact; fill: rgb(140, 109, 49);">Sudan</text><text text-anchor="middle" transform="translate(-152,-17)rotate(-30.00000044529205)scale(0.9999999865388264,0.9999999865388264)" style="font-size: 10px; font-family: Impact; fill: rgb(189, 158, 57);">thereby</text><text text-anchor="middle" transform="translate(-182,54)rotate(-30.00000044529205)scale(0.9999999865388264,0.9999999865388264)" style="font-size: 10px; font-family: Impact; fill: rgb(231, 186, 82);">constantly</text><text text-anchor="middle" transform="translate(-150,-128)rotate(-30.00000044529205)scale(0.9999999865388264,0.9999999865388264)" style="font-size: 10px; font-family: Impact; fill: rgb(231, 203, 148);">receiving</text><text text-anchor="middle" transform="translate(188,-54)rotate(-30.00000044529205)scale(0.9999999865388264,0.9999999865388264)" style="font-size: 10px; font-family: Impact; fill: rgb(132, 60, 57);">requests</text><text text-anchor="middle" transform="translate(-134,149)rotate(-30.00000044529205)scale(0.9999999865388264,0.9999999865388264)" style="font-size: 10px; font-family: Impact; fill: rgb(173, 73, 74);">country</text><text text-anchor="middle" transform="translate(-162,-136)rotate(-30.00000044529205)scale(0.9999999865388264,0.9999999865388264)" style="font-size: 10px; font-family: Impact; fill: rgb(214, 97, 107);">Collecting</text><text text-anchor="middle" transform="translate(-189,-10)rotate(-30.00000044529205)scale(0.9999999865388264,0.9999999865388264)" style="font-size: 10px; font-family: Impact; fill: rgb(189, 158, 57);">relevant</text><text text-anchor="middle" transform="translate(-100,30)rotate(-30.00000044529205)scale(0.9999999865388264,0.9999999865388264)" style="font-size: 10px; font-family: Impact; fill: rgb(206, 219, 156);">data</text><text text-anchor="middle" transform="translate(-19,-16)rotate(-30.00000044529205)scale(0.9999999865388264,0.9999999865388264)" style="font-size: 10px; font-family: Impact; fill: rgb(231, 150, 156);">conducting</text><text text-anchor="middle" transform="translate(-227,-85)rotate(-30.00000044529205)scale(0.9999999865388264,0.9999999865388264)" style="font-size: 10px; font-family: Impact; fill: rgb(123, 65, 115);">trend</text><text text-anchor="middle" transform="translate(115,-93)rotate(-30.00000044529205)scale(0.9999999865388264,0.9999999865388264)" style="font-size: 10px; font-family: Impact; fill: rgb(165, 81, 148);">analyses</text><text text-anchor="middle" transform="translate(-134,24)rotate(-30.00000044529205)scale(0.9999999865388264,0.9999999865388264)" style="font-size: 10px; font-family: Impact; fill: rgb(206, 109, 189);">statistics</text><text text-anchor="middle" transform="translate(195,-131)rotate(-30.00000044529205)scale(0.9999999865388264,0.9999999865388264)" style="font-size: 10px; font-family: Impact; fill: rgb(222, 158, 214);">constraints</text><text text-anchor="middle" transform="translate(203,14)rotate(-30.00000044529205)scale(0.9999999865388264,0.9999999865388264)" style="font-size: 10px; font-family: Impact; fill: rgb(57, 59, 121);">support</text><text text-anchor="middle" transform="translate(66,-158)rotate(-30.00000044529205)scale(0.9999999865388264,0.9999999865388264)" style="font-size: 10px; font-family: Impact; fill: rgb(82, 84, 163);">messaging</text><text text-anchor="middle" transform="translate(90,81)rotate(-30.00000044529205)scale(0.9999999865388264,0.9999999865388264)" style="font-size: 10px; font-family: Impact; fill: rgb(107, 110, 207);">represents</text><text text-anchor="middle" transform="translate(187,-91)rotate(-30.00000044529205)scale(0.9999999865388264,0.9999999865388264)" style="font-size: 10px; font-family: Impact; fill: rgb(156, 158, 222);">meetings</text><text text-anchor="middle" transform="translate(263,43)rotate(-30.00000044529205)scale(0.9999999865388264,0.9999999865388264)" style="font-size: 10px; font-family: Impact; fill: rgb(99, 121, 57);">work</text><text text-anchor="middle" transform="translate(99,90)rotate(-30.00000044529205)scale(0.9999999865388264,0.9999999865388264)" style="font-size: 10px; font-family: Impact; fill: rgb(140, 162, 82);">discussions</text><text text-anchor="middle" transform="translate(-178,75)rotate(-30.00000044529205)scale(0.9999999865388264,0.9999999865388264)" style="font-size: 10px; font-family: Impact; fill: rgb(181, 207, 107);">documents</text><text text-anchor="middle" transform="translate(111,-9)rotate(-30.00000044529205)scale(0.9999999865388264,0.9999999865388264)" style="font-size: 10px; font-family: Impact; fill: rgb(206, 219, 156);">act</text><text text-anchor="middle" transform="translate(-163,-153)rotate(-30.00000044529205)scale(0.9999999865388264,0.9999999865388264)" style="font-size: 10px; font-family: Impact; fill: rgb(140, 109, 49);">issues</text><text text-anchor="middle" transform="translate(102,-153)rotate(-30.00000044529205)scale(0.9999999865388264,0.9999999865388264)" style="font-size: 10px; font-family: Impact; fill: rgb(189, 158, 57);">member</text><text text-anchor="middle" transform="translate(-129,44)rotate(-30.00000044529205)scale(0.9999999865388264,0.9999999865388264)" style="font-size: 10px; font-family: Impact; fill: rgb(231, 186, 82);">interest</text><text text-anchor="middle" transform="translate(-119,159)rotate(-30.00000044529205)scale(0.9999999865388264,0.9999999865388264)" style="font-size: 10px; font-family: Impact; fill: rgb(99, 121, 57);">works</text><text text-anchor="middle" transform="translate(133,53)rotate(-30.00000044529205)scale(0.9999999865388264,0.9999999865388264)" style="font-size: 10px; font-family: Impact; fill: rgb(231, 203, 148);">develop</text><text text-anchor="middle" transform="translate(52,103)rotate(-30.00000044529205)scale(0.9999999865388264,0.9999999865388264)" style="font-size: 10px; font-family: Impact; fill: rgb(132, 60, 57);">papers</text><text text-anchor="middle" transform="translate(-207,14)rotate(-30.00000044529205)scale(0.9999999865388264,0.9999999865388264)" style="font-size: 10px; font-family: Impact; fill: rgb(173, 73, 74);">prioritise</text><text text-anchor="middle" transform="translate(187,-110)rotate(-30.00000044529205)scale(0.9999999865388264,0.9999999865388264)" style="font-size: 10px; font-family: Impact; fill: rgb(165, 81, 148);">areas</text><text text-anchor="middle" transform="translate(234,-86)rotate(-30.00000044529205)scale(0.9999999865388264,0.9999999865388264)" style="font-size: 10px; font-family: Impact; fill: rgb(214, 97, 107);">represent</text><text text-anchor="middle" transform="translate(-207,-136)rotate(-30.00000044529205)scale(0.9999999865388264,0.9999999865388264)" style="font-size: 10px; font-family: Impact; fill: rgb(231, 150, 156);">committed</text><text text-anchor="middle" transform="translate(214,-87)rotate(-30.00000044529205)scale(0.9999999865388264,0.9999999865388264)" style="font-size: 10px; font-family: Impact; fill: rgb(123, 65, 115);">strengthening</text><text text-anchor="middle" transform="translate(50,120)rotate(-30.00000044529205)scale(0.9999999865388264,0.9999999865388264)" style="font-size: 10px; font-family: Impact; fill: rgb(165, 81, 148);">partnership</text><text text-anchor="middle" transform="translate(126,-131)rotate(-30.00000044529205)scale(0.9999999865388264,0.9999999865388264)" style="font-size: 10px; font-family: Impact; fill: rgb(206, 109, 189);">international</text><text text-anchor="middle" transform="translate(-140,139)rotate(-30.00000044529205)scale(0.9999999865388264,0.9999999865388264)" style="font-size: 10px; font-family: Impact; fill: rgb(222, 158, 214);">national</text><text text-anchor="middle" transform="translate(2,142)rotate(-30.00000044529205)scale(0.9999999865388264,0.9999999865388264)" style="font-size: 10px; font-family: Impact; fill: rgb(57, 59, 121);">including</text><text text-anchor="middle" transform="translate(-222,86)rotate(-30.00000044529205)scale(0.9999999865388264,0.9999999865388264)" style="font-size: 10px; font-family: Impact; fill: rgb(82, 84, 163);">facilitation</text><text text-anchor="middle" transform="translate(255,-80)rotate(-30.00000044529205)scale(0.9999999865388264,0.9999999865388264)" style="font-size: 10px; font-family: Impact; fill: rgb(107, 110, 207);">linking</text><text text-anchor="middle" transform="translate(-259,-107)rotate(-30.00000044529205)scale(0.9999999865388264,0.9999999865388264)" style="font-size: 10px; font-family: Impact; fill: rgb(156, 158, 222);">opportunities</text><text text-anchor="middle" transform="translate(80,172)rotate(-30.00000044529205)scale(0.9999999865388264,0.9999999865388264)" style="font-size: 10px; font-family: Impact; fill: rgb(99, 121, 57);">training</text><text text-anchor="middle" transform="translate(42,-175)rotate(-30.00000044529205)scale(0.9999999865388264,0.9999999865388264)" style="font-size: 10px; font-family: Impact; fill: rgb(140, 162, 82);">initiatives</text><text text-anchor="middle" transform="translate(-260,-67)rotate(-30.00000044529205)scale(0.9999999865388264,0.9999999865388264)" style="font-size: 10px; font-family: Impact; fill: rgb(181, 207, 107);">provides</text><text text-anchor="middle" transform="translate(114,-143)rotate(-30.00000044529205)scale(0.9999999865388264,0.9999999865388264)" style="font-size: 10px; font-family: Impact; fill: rgb(206, 219, 156);">accessible</text><text text-anchor="middle" transform="translate(-168,165)rotate(-30.00000044529205)scale(0.9999999865388264,0.9999999865388264)" style="font-size: 10px; font-family: Impact; fill: rgb(140, 109, 49);">timely</text><text text-anchor="middle" transform="translate(-217,99)rotate(-30.00000044529205)scale(0.9999999865388264,0.9999999865388264)" style="font-size: 10px; font-family: Impact; fill: rgb(189, 158, 57);">access</text><text text-anchor="middle" transform="translate(122,-112)rotate(-30.00000044529205)scale(0.9999999865388264,0.9999999865388264)" style="font-size: 10px; font-family: Impact; fill: rgb(231, 186, 82);">related</text><text text-anchor="middle" transform="translate(-154,-30)rotate(-30.00000044529205)scale(0.9999999865388264,0.9999999865388264)" style="font-size: 10px; font-family: Impact; fill: rgb(231, 203, 148);">advice</text><text text-anchor="middle" transform="translate(20,40)rotate(-30.00000044529205)scale(0.9999999865388264,0.9999999865388264)" style="font-size: 10px; font-family: Impact; fill: rgb(132, 60, 57);">best</text><text text-anchor="middle" transform="translate(159,51)rotate(-30.00000044529205)scale(0.9999999865388264,0.9999999865388264)" style="font-size: 10px; font-family: Impact; fill: rgb(173, 73, 74);">practices</text></g></svg>