<svg xmlns="http://www.w3.org/2000/svg" xmlns:xlink="http://www.w3.org/1999/xlink" width="30" height="30" viewBox="0 0 30 30"><defs><path id="a" d="M3 5h25v20H3z"/></defs><clipPath id="b"><use xlink:href="#a" overflow="visible"/></clipPath><g clip-path="url(#b)"><defs><path id="c" d="M3 5h25v20H3z"/></defs><clipPath id="d"><use xlink:href="#c" overflow="visible"/></clipPath><path clip-path="url(#d)" fill="none" stroke="#00ADB9" stroke-linecap="round" stroke-linejoin="round" stroke-miterlimit="10" d="M12.615 6.923h14.72M12.615 14.615h14.72M12.615 22.308h14.72"/></g><g clip-path="url(#b)"><defs><path id="e" d="M4.129 8.065l-.237-.206.731 1.232a.5.5 0 0 0 .891-.062l.553-1.322-.208.237 1.232-.729a.5.5 0 0 0-.062-.892l-1.322-.552.238.206-.73-1.232a.5.5 0 0 0-.892.062L3.771 6.13l.207-.238-1.232.73a.5.5 0 0 0 .062.892l1.321.551zm.386-.922l-1.323-.552.062.892 1.232-.73a.499.499 0 0 0 .207-.238l.553-1.322-.892.062.73 1.232a.51.51 0 0 0 .238.207l1.322.552-.062-.892-1.232.731a.503.503 0 0 0-.207.237l-.551 1.323.891-.062-.731-1.233a.503.503 0 0 0-.237-.207zM2.762-23.922L35.759 4.762 7.075 37.759-25.922 9.075 2.762-23.922z"/></defs><clipPath id="f"><use xlink:href="#e" overflow="visible"/></clipPath><g clip-path="url(#f)"><defs><path id="g" d="M4.322 7.604L3 7.053l1.232-.731L4.784 5l.731 1.232 1.322.552-1.233.731-.551 1.322z"/></defs><clipPath id="h"><use xlink:href="#g" overflow="visible"/></clipPath><g clip-path="url(#h)"><defs><path id="i" d="M3 5h25v20H3z"/></defs><clipPath id="j"><use xlink:href="#i" overflow="visible"/></clipPath><path clip-path="url(#j)" fill="#00ADB9" d="M4.322 7.604L3 7.053l1.232-.731L4.784 5l.731 1.232 1.322.552-1.233.731-.551 1.322z"/></g></g></g><g clip-path="url(#b)"><defs><path id="k" d="M4.322 7.604L3 7.053l1.232-.731L4.784 5l.731 1.232 1.322.552-1.233.731-.551 1.322z"/></defs><clipPath id="l"><use xlink:href="#k" overflow="visible"/></clipPath><g clip-path="url(#l)"><defs><path id="m" d="M3 5h25v20H3z"/></defs><clipPath id="n"><use xlink:href="#m" overflow="visible"/></clipPath><path clip-path="url(#n)" fill="none" stroke="#00ADB9" stroke-width="2" stroke-linecap="round" stroke-linejoin="round" stroke-miterlimit="10" d="M4.322 7.604L3 7.053l1.232-.731L4.784 5l.731 1.232 1.322.552-1.233.731-.551 1.322z"/></g></g><g clip-path="url(#b)"><defs><path id="o" d="M4.129 15.758l-.237-.206.731 1.232a.5.5 0 0 0 .891-.062l.553-1.322-.207.237 1.232-.73a.5.5 0 0 0-.062-.892l-1.322-.552.238.207-.73-1.232a.5.5 0 0 0-.892.062l-.552 1.322.207-.238-1.232.73a.5.5 0 0 0 .062.892l1.32.552zm.386-.923l-1.322-.552.062.892 1.232-.73a.495.495 0 0 0 .206-.237l.553-1.322-.892.062.73 1.232a.502.502 0 0 0 .238.206l1.322.552-.062-.891-1.232.729a.51.51 0 0 0-.207.238l-.551 1.322.891-.062-.73-1.232a.51.51 0 0 0-.238-.207zM2.762-16.229l32.997 28.684L7.075 45.451l-32.997-28.684L2.762-16.229z"/></defs><clipPath id="p"><use xlink:href="#o" overflow="visible"/></clipPath><g clip-path="url(#p)"><defs><path id="q" d="M4.322 15.297L3 14.745l1.232-.73.552-1.323.731 1.233 1.322.552-1.233.73-.551 1.322z"/></defs><clipPath id="r"><use xlink:href="#q" overflow="visible"/></clipPath><g clip-path="url(#r)"><defs><path id="s" d="M3 5h25v20H3z"/></defs><clipPath id="t"><use xlink:href="#s" overflow="visible"/></clipPath><path clip-path="url(#t)" fill="#00ADB9" d="M4.322 15.297L3 14.745l1.232-.73.552-1.323.731 1.233 1.322.552-1.233.73-.551 1.322z"/></g></g></g><g clip-path="url(#b)"><defs><path id="u" d="M4.322 15.297L3 14.745l1.232-.73.552-1.323.731 1.233 1.322.552-1.233.73-.551 1.322z"/></defs><clipPath id="v"><use xlink:href="#u" overflow="visible"/></clipPath><g clip-path="url(#v)"><defs><path id="w" d="M3 5h25v20H3z"/></defs><clipPath id="x"><use xlink:href="#w" overflow="visible"/></clipPath><path clip-path="url(#x)" fill="none" stroke="#00ADB9" stroke-width="2" stroke-linecap="round" stroke-linejoin="round" stroke-miterlimit="10" d="M4.322 15.297L3 14.745l1.232-.73.552-1.323.731 1.233 1.322.552-1.233.73-.551 1.322z"/></g></g><g clip-path="url(#b)"><defs><path id="y" d="M4.129 23.45l-.237-.206.731 1.232a.5.5 0 0 0 .891-.062l.553-1.322-.207.237 1.232-.73a.5.5 0 0 0-.062-.892l-1.322-.552.238.207-.73-1.232a.5.5 0 0 0-.892.062l-.552 1.322.207-.238-1.232.73a.5.5 0 0 0 .062.892l1.32.552zm.386-.923l-1.322-.552.062.892 1.232-.73a.495.495 0 0 0 .206-.237l.553-1.322-.892.062.73 1.232a.502.502 0 0 0 .238.206l1.322.552-.062-.892-1.232.73a.51.51 0 0 0-.207.238l-.551 1.322.891-.062-.73-1.232a.515.515 0 0 0-.238-.207zM2.762-8.537l32.997 28.684L7.075 53.144-25.922 24.46 2.762-8.537z"/></defs><clipPath id="z"><use xlink:href="#y" overflow="visible"/></clipPath><g clip-path="url(#z)"><defs><path id="A" d="M4.322 22.989L3 22.438l1.232-.731.552-1.322.731 1.232 1.322.552-1.233.73-.551 1.323z"/></defs><clipPath id="B"><use xlink:href="#A" overflow="visible"/></clipPath><g clip-path="url(#B)"><defs><path id="C" d="M3 5h25v20H3z"/></defs><clipPath id="D"><use xlink:href="#C" overflow="visible"/></clipPath><path clip-path="url(#D)" fill="#00ADB9" d="M4.322 22.989L3 22.438l1.232-.731.552-1.322.731 1.232 1.322.552-1.233.73-.551 1.323z"/></g></g></g><g clip-path="url(#b)"><defs><path id="E" d="M4.322 22.989L3 22.438l1.232-.731.552-1.322.731 1.232 1.322.552-1.233.73-.551 1.323z"/></defs><clipPath id="F"><use xlink:href="#E" overflow="visible"/></clipPath><g clip-path="url(#F)"><defs><path id="G" d="M3 5h25v20H3z"/></defs><clipPath id="H"><use xlink:href="#G" overflow="visible"/></clipPath><path clip-path="url(#H)" fill="none" stroke="#00ADB9" stroke-width="2" stroke-linecap="round" stroke-linejoin="round" stroke-miterlimit="10" d="M4.322 22.989L3 22.438l1.232-.731.552-1.322.731 1.232 1.322.552-1.233.73-.551 1.323z"/></g></g></svg>