<?xml version="1.0" encoding="utf-8"?>
<!-- Generator: Adobe Illustrator 16.0.4, SVG Export Plug-In . SVG Version: 6.00 Build 0)  -->
<!DOCTYPE svg PUBLIC "-//W3C//DTD SVG 1.1//EN" "http://www.w3.org/Graphics/SVG/1.1/DTD/svg11.dtd">
<svg version="1.1" id="Layer_1" xmlns="http://www.w3.org/2000/svg" xmlns:xlink="http://www.w3.org/1999/xlink" x="0px" y="0px"
	 width="30px" height="30px" viewBox="0 0 30 30" enable-background="new 0 0 30 30" xml:space="preserve">
<g enable-background="new    ">
	<g>
		<defs>
			<rect id="SVGID_1_" x="4" y="3" width="22" height="23"/>
		</defs>
		<clipPath id="SVGID_2_">
			<use xlink:href="#SVGID_1_"  overflow="visible"/>
		</clipPath>
		<g clip-path="url(#SVGID_2_)">
			<defs>
				<path id="SVGID_3_" d="M21.785,24.688c-1.572,0-2.852-1.265-2.852-2.82c0-1.555,1.279-2.819,2.852-2.819
					c1.573,0,2.852,1.265,2.852,2.819C24.637,23.423,23.358,24.688,21.785,24.688z M8.198,17.306c-1.573,0-2.852-1.265-2.852-2.82
					s1.279-2.819,2.852-2.819c1.573,0,2.852,1.264,2.852,2.819S9.766,17.306,8.198,17.306z M21.785,4.293
					c1.573,0,2.852,1.265,2.852,2.82s-1.278,2.82-2.852,2.82c-1.572,0-2.852-1.265-2.852-2.82S20.217,4.293,21.785,4.293z
					 M21.785,17.764c-1.336,0-2.527,0.63-3.291,1.604l-6.383-3.526c0.149-0.425,0.231-0.883,0.231-1.355
					c0-0.477-0.082-0.93-0.236-1.359l6.379-3.521c0.757,0.978,1.954,1.612,3.296,1.612c2.287,0,4.154-1.842,4.154-4.108
					S24.072,3,21.781,3c-2.293,0-4.154,1.842-4.154,4.108c0,0.478,0.082,0.936,0.236,1.36l-6.375,3.521
					c-0.758-0.983-1.954-1.613-3.296-1.613c-2.287,0-4.154,1.842-4.154,4.108s1.867,4.108,4.159,4.108
					c1.341,0,2.538-0.634,3.301-1.617l6.378,3.526c-0.154,0.43-0.241,0.893-0.241,1.369c0,2.262,1.862,4.108,4.155,4.108
					c2.291,0,4.154-1.842,4.154-4.108S24.078,17.764,21.785,17.764z"/>
			</defs>
			<clipPath id="SVGID_4_">
				<use xlink:href="#SVGID_3_"  overflow="visible"/>
			</clipPath>
			<g clip-path="url(#SVGID_4_)">
				<defs>
					<rect id="SVGID_5_" x="4" y="3" width="22" height="23"/>
				</defs>
				<clipPath id="SVGID_6_">
					<use xlink:href="#SVGID_5_"  overflow="visible"/>
				</clipPath>
				<rect x="-0.961" y="-2" clip-path="url(#SVGID_6_)" fill="#0CAEBA" width="31.907" height="32.98"/>
			</g>
		</g>
	</g>
</g>
</svg>
